<svg xmlns="http://www.w3.org/2000/svg" width="339.49" height="46.888" viewBox="0 0 339.49 46.888">
  <defs>
    <style>
      .cls-1 {
        fill: #fff;
        fill-rule: evenodd;
      }
    </style>
  </defs>
  <g id="broux" transform="translate(0 0.008)">
    <path id="Trazado_4" data-name="Trazado 4" class="cls-1" d="M316.44,22.42,339.45.01H324.57L307.4,18.02,290.4.01H274.5l.02.01h-.09l23.06,23.57L274.51,46.02l14.87-.01h.03l2.28-2.43,14.85-15.6,16.98,18.03h15.97Z"/>
    <path id="Trazado_5" data-name="Trazado 5" class="cls-1" d="M166.59,0h-5.43Q145,0,137,5.85A19.23,19.23,0,0,0,129.05,19S128,30.47,131,33.74Q137.32,46,161,46h5.64Q199,46,199,23.25h0Q198.66,0,166.59,0Zm3.23,38H157.75Q141,38,141,23.16q0-7.8,4.16-11.47T157.86,8h11.85q8.53,0,12.69,3.68t4.17,11.45Q186.56,38,169.82,38Z"/>
    <path id="Trazado_6" data-name="Trazado 6" class="cls-1" d="M56.2,18.59a8.92,8.92,0,0,0,1.82-5,12,12,0,0,0-1.19-5.3A11.06,11.06,0,0,0,52.91,4a22.09,22.09,0,0,0-7-2.91,43.779,43.779,0,0,0-10.4-1H0V8H37.77a9.83,9.83,0,0,1,5.71,1.64,4.67,4.67,0,0,1,2.46,3.82,4.71,4.71,0,0,1-2.29,3.93A10.18,10.18,0,0,1,37.7,19H0V46H35.51A40.87,40.87,0,0,0,46,44.84a21.83,21.83,0,0,0,7-3.08,11.74,11.74,0,0,0,3.87-4.35,11.45,11.45,0,0,0,1.19-5,9,9,0,0,0-1.88-5.32,13,13,0,0,0-6-4.21,12.46,12.46,0,0,0,6.02-4.29ZM43.37,36.44A10.14,10.14,0,0,1,37.5,38H9V27H37.56a9.73,9.73,0,0,1,5.64,1.6,4.55,4.55,0,0,1,2.38,3.72,4.8,4.8,0,0,1-2.21,4.12Z"/>
    <path id="Trazado_7" data-name="Trazado 7" class="cls-1" d="M111.05,25.84a22.93,22.93,0,0,0,7-3.1A11.63,11.63,0,0,0,122,18.45a10.65,10.65,0,0,0,1.2-4.82,10.93,10.93,0,0,0-1.31-5.25,12.33,12.33,0,0,0-4-4.33,21.59,21.59,0,0,0-7-3A42.62,42.62,0,0,0,100.64,0H65V46H77V28.88l46,18v-9.6L94.22,27h6.42a40.13,40.13,0,0,0,10.41-1.16ZM82,19H77V8h24.35a10.19,10.19,0,0,1,3.05.44,9.18,9.18,0,0,1,2.48,1.2,5.94,5.94,0,0,1,1.72,1.74,4,4,0,0,1,.61,2.08,4.75,4.75,0,0,1-2.27,3.9A9.46,9.46,0,0,1,101.23,19Z"/>
    <path id="Trazado_8" data-name="Trazado 8" class="cls-1" d="M255,28.62c0,2.77-1.39,5-4.21,6.77S243.74,38,238,38h-.34c-5.53,0-9.83-.81-13-2.58l-.17-.11a19.5,19.5,0,0,1-3.78-5.48V0h-13V30.37s.13,4.42,5.22,8.21a16.29,16.29,0,0,0,3,2.12,32.52,32.52,0,0,0,9.41,3.48,59.06,59.06,0,0,0,12.86,1.26,63,63,0,0,0,13.07-1.22,29.58,29.58,0,0,0,9.29-3.49,16,16,0,0,0,5.55-5.37,13.42,13.42,0,0,0,1.87-7V0H255Z"/>
  </g>
</svg>
