<svg xmlns="http://www.w3.org/2000/svg" viewBox="0 0 338.84 46.62"><defs><style>.cls-1{fill:#002e5f;fill-rule:evenodd;}</style></defs><g id="Capa_2" data-name="Capa 2"><g id="Capa_1-2" data-name="Capa 1"><path class="cls-1" d="M35.28,0A43.49,43.49,0,0,1,45.6,1.05a22,22,0,0,1,6.93,2.88,11,11,0,0,1,3.89,4.25,11.9,11.9,0,0,1,1.18,5.27,8.91,8.91,0,0,1-1.8,5,12.4,12.4,0,0,1-6,4.22,12.87,12.87,0,0,1,5.92,4.18,8.94,8.94,0,0,1,1.86,5.28,11.3,11.3,0,0,1-1.18,5,11.62,11.62,0,0,1-3.84,4.32,21.46,21.46,0,0,1-6.93,3.06,40.25,40.25,0,0,1-10.37,1.16H0v-8H0V33.44H2.86V27.5H0v3H8.69V26.69H37.2a9.76,9.76,0,0,1,5.63,1.6A4.52,4.52,0,0,1,45.2,32,4.79,4.79,0,0,1,43,36.11a10.11,10.11,0,0,1-5.86,1.56H8.69V36.41H5.82V18.69h-3v2.88H0v3H8.79V18.69h5.94v2.88h3V18.69h19.4A10.11,10.11,0,0,0,43,17.13a4.58,4.58,0,0,0,2.25-3.82A4.52,4.52,0,0,0,42.83,9.6,9.76,9.76,0,0,0,37.2,8H0V0ZM306.63,18.6h-3v3h3v-3Zm-86.94-5.79h-3v3h3v-3ZM338.84,45.67H324L306.6,27.2,289.24,45.67H274.36L288.82,30.8v2.64h3V27.75l-2.65,2.72h8.58v5.94h-3V24.7l.15-.16h2.81V18.6h-3v1.33L274.36,0h14.77L306.6,18.33,324.07,0h14.77L316,22.25l22.88,23.42ZM267.38,28.73a13.72,13.72,0,0,1-1.86,7.09A16.12,16.12,0,0,1,260,41.27a29.18,29.18,0,0,1-9.24,3.53,61,61,0,0,1-13,1.24,57.69,57.69,0,0,1-12.79-1.28,32.1,32.1,0,0,1-9.36-3.52,16.73,16.73,0,0,1-5.75-5.42,13.82,13.82,0,0,1-1.17-2.38h2V27.5h-2.79v1.3a15.16,15.16,0,0,0,.09,1.67h8.63v5.94h-3V18.6h3v5.94h-8.72v-3h2.79v-3h-2.79V0h12.4V28.65c0,2.77,1.56,5,4.68,6.77S232.36,38,237.84,38h.34c5.64,0,9.84-.88,12.63-2.62s4.17-4,4.17-6.77V0h12.4V28.73Zm-97.62,8.94q16.56,0,16.57-14.69,0-7.71-4.12-11.34T169.65,8H157.92q-8.44,0-12.57,3.64T141.24,23q0,14.7,16.57,14.69ZM166.49,0q31.9,0,32.24,22.69v.22q0,22.75-32.13,22.76H161q-23.59,0-29.86-12.27V27.5h-1.9a20.79,20.79,0,0,0,.71,3H137v5.94h-3V18.6h3v5.94h-8.16c0-.54,0-1.08,0-1.63v-.22c0-.38,0-.75,0-1.12h2.24v-3h-1.94A18.75,18.75,0,0,1,137,5.71Q145,0,161.08,0ZM77.33,19h2.09v2.59h3V19H102a9.82,9.82,0,0,0,5.81-1.63,4.73,4.73,0,0,0,2.31-3.9,3.87,3.87,0,0,0-.62-2.07,6,6,0,0,0-1.75-1.74,9.52,9.52,0,0,0-2.53-1.2,10.51,10.51,0,0,0-3.1-.44H77.33V19ZM100.21,0A42.32,42.32,0,0,1,110.3,1.05,21.59,21.59,0,0,1,117.23,4a12.27,12.27,0,0,1,4,4.29,10.87,10.87,0,0,1,1.3,5.2,10.58,10.58,0,0,1-1.19,4.77,11.61,11.61,0,0,1-3.88,4.25,22.69,22.69,0,0,1-6.94,3.06,39.55,39.55,0,0,1-10.31,1.16H94.46L123.09,37v9.6l-45.76-18v17H64.93V33.44h2.62V27.5H64.93v3h8.56v5.94h-3V18.6h3v5.94H64.93v-3h2.62v-3H64.93V0Z"/></g></g></svg>