<svg id="Capa_1" data-name="Capa 1" xmlns="http://www.w3.org/2000/svg" viewBox="0 0 320 44.01"><defs><style>.cls-1{fill:#002e5f;fill-rule:evenodd;}</style></defs><g id="Capa_2" data-name="Capa 2"><g id="Capa_1-2" data-name="Capa 1-2"><path class="cls-1" d="M33.33,0a41.5,41.5,0,0,1,9.75,1,21,21,0,0,1,6.54,2.72,10.47,10.47,0,0,1,3.68,4,11.25,11.25,0,0,1,1.11,5,8.4,8.4,0,0,1-1.7,4.72,11.74,11.74,0,0,1-5.66,4,12.12,12.12,0,0,1,5.59,3.95,8.39,8.39,0,0,1,1.75,5,10.56,10.56,0,0,1-1.11,4.72,11,11,0,0,1-3.63,4.08A20.19,20.19,0,0,1,43.11,42a38,38,0,0,1-9.79,1.1H0V35.57H0v-4h2.7V26H0V28.8H8.23V25.2H35.15a9.19,9.19,0,0,1,5.31,1.52,4.25,4.25,0,0,1,2.24,3.5,4.51,4.51,0,0,1-2.08,3.88,9.48,9.48,0,0,1-5.53,1.47H8.23V34.38H5.52V17.65H2.68v2.72H0V23.2h8.3V17.65h5.61v2.72h2.83V17.65H35.08a9.49,9.49,0,0,0,5.54-1.47,4.32,4.32,0,0,0,2.13-3.61,4.27,4.27,0,0,0-2.29-3.5,9.1,9.1,0,0,0-5.31-1.51H0V0ZM289.57,17.57h-2.84V20.4h2.84Zm-82.1-5.47h-2.83v2.83h2.83ZM320,43.13H306L289.54,25.69,273.15,43.13H259.09l13.66-14v2.49h2.83V26.21l-2.5,2.56h8.1v5.61h-2.83V23.33l.14-.16h2.65v-5.6h-2.83v1.25L259.09,0h14l16.5,17.31L306,0H320L298.41,21,320,43.13Zm-67.48-16a12.91,12.91,0,0,1-1.75,6.7A15.19,15.19,0,0,1,245.53,39a27.52,27.52,0,0,1-8.72,3.34,58.16,58.16,0,0,1-12.28,1.17,54.4,54.4,0,0,1-12.07-1.21,30,30,0,0,1-8.84-3.33,15.73,15.73,0,0,1-5.43-5.11,13.82,13.82,0,0,1-1.11-2.25H199V26h-2.63V27.2a13.76,13.76,0,0,0,.08,1.57h8.15v5.61h-2.83V17.57h2.83v5.6h-8.23V20.34H199V17.51h-2.63V0h11.71V27.06c0,2.61,1.47,4.72,4.42,6.39s7,2.43,12.14,2.43h.32c5.33,0,9.29-.83,11.93-2.47s3.93-3.78,3.93-6.39V0H252.5Zm-92.18,8.44Q176,35.57,176,21.7q0-7.27-3.89-10.71T160.22,7.56H149.14q-8,0-11.87,3.43t-3.88,10.73q0,13.88,15.65,13.87ZM157.23,0q30.14,0,30.45,21.43v.21q0,21.48-30.34,21.49h-5.29q-22.28,0-28.2-11.59V26h-1.79a19.41,19.41,0,0,0,.67,2.83h6.66v5.61h-2.84V17.57h2.84v5.6h-7.71v-2.8h2.12V17.54H122a17.68,17.68,0,0,1,7.42-12.15Q136.94,0,152.13,0ZM73,17.94h2v2.45h2.83V17.94H96.34a9.2,9.2,0,0,0,5.48-1.54A4.43,4.43,0,0,0,104,12.72a3.56,3.56,0,0,0-.58-2,5.64,5.64,0,0,0-1.65-1.65A9.19,9.19,0,0,0,99.38,8a10,10,0,0,0-2.93-.41H73ZM94.65,0a40.1,40.1,0,0,1,9.52,1,20.33,20.33,0,0,1,6.55,2.79,11.56,11.56,0,0,1,3.78,4.05,10.27,10.27,0,0,1,1.22,4.91,9.92,9.92,0,0,1-1.12,4.5,11.05,11.05,0,0,1-3.66,4,21.64,21.64,0,0,1-6.56,2.89,37.07,37.07,0,0,1-9.73,1.09H89.22l27,9.7V44L73,27V43.06H61.33V31.58h2.48V26H61.33V28.8h8.09v5.61H66.58V17.57h2.84v5.6H61.33V20.34h2.48V17.51H61.33V0Z" transform="translate(-0.02 0)"/></g></g></svg>