<svg xmlns="http://www.w3.org/2000/svg" width="44.55" height="45.928" viewBox="0 0 44.55 45.928"><path d="M1078.447,473.964c0,3.368-1.168,4.287-1.168,4.287v-1.531h-4.964V474.27h2.336V471.82h-2.336v2.449h-2.336v2.449h2.336v2.449h2.628v2.143l-2.628,2.756v-2.143h-2.336v2.449h2.044l-2.044,2.143s-7.592,7.961-8.176,8.543a8.271,8.271,0,0,1-10.8-.276,16.864,16.864,0,0,0,4.088-.551,10.588,10.588,0,0,0,7.767-8.634c.409-3.674-.467-8.849-5.723-11.635,5.256-2.756,6.132-7.961,5.723-11.635a10.588,10.588,0,0,0-7.767-8.634,18.512,18.512,0,0,0-4.088-.551,8.271,8.271,0,0,1,10.8-.276c.584.582,8.176,8.543,8.176,8.543v2.143h-2.336v2.756h4.964v-2.143l2.628,2.756v1.837h1.46a7.951,7.951,0,0,1,1.46,2.449h-.584v2.756Z" transform="translate(-1033.897 -451)" fill="#072d60"/><rect width="2.391" height="2.391" transform="translate(7.564 26.796)" fill="#072d60"/><rect width="2.628" height="2.628" transform="translate(7.524 30.248)" fill="#072d60"/><rect width="2.482" height="2.482" transform="translate(3.65 30.397)" fill="#072d60"/><rect width="2.482" height="2.482" transform="translate(3.65 26.958)" fill="#072d60"/><rect width="1.898" height="1.898" transform="translate(0 27.246)" fill="#072d60"/><rect width="2.391" height="2.391" transform="translate(7.564 33.92)" fill="#072d60"/><path d="M1037.477,538H1035.2v2.715h2.277v.584H1035.2v2.774h2.277v.584H1035.2v2.715h2.277a4.691,4.691,0,1,0,0-9.373Z" transform="translate(-1024.166 -511.026)" fill="#072d60"/><rect width="2.391" height="2.391" transform="translate(7.564 16.74)" fill="#072d60"/><rect width="2.628" height="2.628" transform="translate(7.524 13.051)" fill="#072d60"/><rect width="2.482" height="2.482" transform="translate(3.65 13.049)" fill="#072d60"/><rect width="2.482" height="2.482" transform="translate(3.65 16.519)" fill="#072d60"/><rect width="1.898" height="1.898" transform="translate(0 16.814)" fill="#072d60"/><rect width="2.391" height="2.391" transform="translate(7.564 9.616)" fill="#072d60"/><path d="M1037.477,491.344H1035.2v-2.715h2.277v-.584H1035.2V485.27h2.277v-.584H1035.2V482h2.277a4.677,4.677,0,1,1,0,9.344Z" transform="translate(-1024.166 -472.389)" fill="#072d60"/></svg>