<svg xmlns="http://www.w3.org/2000/svg" width="44.55" height="45.928" viewBox="0 0 44.55 45.928">
  <defs>
    <style>
      .cls-1 {
        fill: #fff;
      }
    </style>
  </defs>
  <g id="broux-logo" transform="translate(-200 -335)">
    <rect id="Rectángulo_59" data-name="Rectángulo 59" class="cls-1" width="2.76" height="2.76" transform="translate(207.501 361.635)"/>
    <rect id="Rectángulo_60" data-name="Rectángulo 60" class="cls-1" width="2.76" height="2.76" transform="translate(207.501 365.156)"/>
    <rect id="Rectángulo_61" data-name="Rectángulo 61" class="cls-1" width="2.607" height="2.607" transform="translate(203.834 365.309)"/>
    <rect id="Rectángulo_62" data-name="Rectángulo 62" class="cls-1" width="2.607" height="2.607" transform="translate(203.834 361.88)"/>
    <rect id="Rectángulo_63" data-name="Rectángulo 63" class="cls-1" width="1.994" height="1.994" transform="translate(200 362.187)"/>
    <rect id="Rectángulo_64" data-name="Rectángulo 64" class="cls-1" width="2.76" height="2.76" transform="translate(207.501 368.677)"/>
    <path id="Trazado_23" data-name="Trazado 23" class="cls-1" d="M1257.592,538H1255.2v2.852h2.392v.613H1255.2v2.914h2.392v.613H1255.2v2.852h2.392a4.928,4.928,0,1,0,0-9.845Z" transform="translate(-1044.273 -176.374)"/>
    <rect id="Rectángulo_65" data-name="Rectángulo 65" class="cls-1" width="2.76" height="2.76" transform="translate(207.501 351.532)"/>
    <rect id="Rectángulo_66" data-name="Rectángulo 66" class="cls-1" width="2.76" height="2.76" transform="translate(207.501 348.012)"/>
    <rect id="Rectángulo_67" data-name="Rectángulo 67" class="cls-1" width="2.607" height="2.607" transform="translate(203.834 348.012)"/>
    <rect id="Rectángulo_68" data-name="Rectángulo 68" class="cls-1" width="2.607" height="2.607" transform="translate(203.834 351.471)"/>
    <rect id="Rectángulo_69" data-name="Rectángulo 69" class="cls-1" width="1.994" height="1.994" transform="translate(200 351.778)"/>
    <rect id="Rectángulo_70" data-name="Rectángulo 70" class="cls-1" width="2.76" height="2.76" transform="translate(207.501 344.491)"/>
    <path id="Trazado_24" data-name="Trazado 24" class="cls-1" d="M1257.592,491.814H1255.2v-2.852h2.392v-.613H1255.2v-2.914h2.392v-.613H1255.2V482h2.392a4.913,4.913,0,1,1,0,9.814Z" transform="translate(-1044.273 -137.513)"/>
    <path id="Trazado_26" data-name="Trazado 26" class="cls-1" d="M1298.966,473.964c0,3.368-1.19,4.287-1.19,4.287V476.72h-5.058V474.27h2.38v-2.45h-2.38v2.45h-2.38v2.449h2.38v2.449h2.678v2.143l-2.678,2.756v-2.143h-2.38v2.449h2.083l-2.083,2.143s-7.736,7.961-8.331,8.543a8.548,8.548,0,0,1-11.008-.276,17.485,17.485,0,0,0,4.165-.551,10.662,10.662,0,0,0,7.914-8.634c.417-3.674-.476-8.849-5.831-11.635,5.355-2.756,6.248-7.961,5.831-11.635a10.663,10.663,0,0,0-7.914-8.634,19.2,19.2,0,0,0-4.165-.551,8.548,8.548,0,0,1,11.008-.276c.595.582,8.331,8.543,8.331,8.543v2.143h-2.38v2.756h5.058v-2.143l2.678,2.756v1.837h1.488a7.929,7.929,0,0,1,1.487,2.449h-.595v2.756Z" transform="translate(-1054.417 -116)"/>
  </g>
</svg>
