<svg xmlns="http://www.w3.org/2000/svg" viewBox="0 0 15 15"><defs><style>.cls-1{fill:#fff;}</style></defs><g id="Capa_2" data-name="Capa 2"><g id="safari-pinned-tab"><g id="broux-logo"><rect id="Rectángulo_59" data-name="Rectángulo 59" class="cls-1" x="2.53" y="8.7" width="0.93" height="0.9"/><rect id="Rectángulo_60" data-name="Rectángulo 60" class="cls-1" x="2.53" y="9.85" width="0.93" height="0.9"/><rect id="Rectángulo_61" data-name="Rectángulo 61" class="cls-1" x="1.29" y="9.9" width="0.88" height="0.85"/><rect id="Rectángulo_62" data-name="Rectángulo 62" class="cls-1" x="1.29" y="8.78" width="0.88" height="0.85"/><rect id="Rectángulo_63" data-name="Rectángulo 63" class="cls-1" y="8.88" width="0.67" height="0.65"/><rect id="Rectángulo_64" data-name="Rectángulo 64" class="cls-1" x="2.53" y="11" width="0.93" height="0.9"/><path id="Trazado_23" data-name="Trazado 23" class="cls-1" d="M4.48,8.7h-.8v.93h.8v.2h-.8v.95h.8V11h-.8v.93h.8A1.61,1.61,0,1,0,4.64,8.7Z"/><rect id="Rectángulo_65" data-name="Rectángulo 65" class="cls-1" x="2.53" y="5.4" width="0.93" height="0.9"/><rect id="Rectángulo_66" data-name="Rectángulo 66" class="cls-1" x="2.53" y="4.25" width="0.93" height="0.9"/><rect id="Rectángulo_67" data-name="Rectángulo 67" class="cls-1" x="1.29" y="4.25" width="0.88" height="0.85"/><rect id="Rectángulo_68" data-name="Rectángulo 68" class="cls-1" x="1.29" y="5.38" width="0.88" height="0.85"/><rect id="Rectángulo_69" data-name="Rectángulo 69" class="cls-1" y="5.48" width="0.67" height="0.65"/><rect id="Rectángulo_70" data-name="Rectángulo 70" class="cls-1" x="2.53" y="3.1" width="0.93" height="0.9"/><path id="Trazado_24" data-name="Trazado 24" class="cls-1" d="M4.48,6.3h-.8V5.37h.8v-.2h-.8v-1h.8V4h-.8V3.1h.8A1.64,1.64,0,0,1,6.22,4.62,1.62,1.62,0,0,1,4.65,6.3Z"/><path id="Trazado_26" data-name="Trazado 26" class="cls-1" d="M15,7.5c0,1.1-.4,1.4-.4,1.4V8.4H12.9V7.6h.8V6.8h-.8v.8h-.81v.8h.81v.8h.9v.7l-.9.9v-.7h-.81v.8h.71l-.71.7-2.8,2.79a3,3,0,0,1-3.71-.09A6.64,6.64,0,0,0,7,14.12,3.54,3.54,0,0,0,9.65,11.3a3.6,3.6,0,0,0-2-3.8,3.59,3.59,0,0,0,2-3.8A3.54,3.54,0,0,0,7,.88,6.64,6.64,0,0,0,5.58.7,3,3,0,0,1,9.29.61l2.8,2.79v.7h-.8V5H13V4.3l.9.9v.6h.5a2.9,2.9,0,0,1,.5.8h-.2v.9Z"/></g></g></g></svg>